<svg width="75" height="15" viewBox="0 0 75 15" fill="none" xmlns="http://www.w3.org/2000/svg">
<mask id="path-1-outside-1_101448_151" maskUnits="userSpaceOnUse" x="-0.957077" y="-0.559998" width="76" height="16" fill="black">
<rect fill="white" x="-0.957077" y="-0.559998" width="76" height="16"/>
<path d="M5.18292 14.68C4.19626 14.68 3.32959 14.5 2.58292 14.14C1.84959 13.78 1.26959 13.2667 0.842923 12.6C0.42959 11.9333 0.216256 11.14 0.202923 10.22H2.44292C2.45626 10.9267 2.69626 11.5333 3.16292 12.04C3.64292 12.5333 4.30959 12.78 5.16292 12.78C5.94959 12.78 6.56292 12.6 7.00292 12.24C7.44292 11.8667 7.66292 11.3867 7.66292 10.8C7.66292 10.3067 7.52959 9.9 7.26292 9.58C7.00959 9.24667 6.60959 8.95334 6.06292 8.7C5.51626 8.43334 4.80959 8.16 3.94292 7.88C2.78292 7.50667 1.92959 6.99334 1.38292 6.34C0.836256 5.67334 0.562923 4.86 0.562923 3.9C0.562923 2.79334 0.962923 1.9 1.76292 1.22C2.56292 0.540002 3.66292 0.200002 5.06292 0.200002C6.42292 0.200002 7.51626 0.553335 8.34292 1.26C9.16959 1.95333 9.59626 2.92 9.62292 4.16H7.36292C7.36292 3.82667 7.26959 3.50667 7.08292 3.2C6.89626 2.88 6.62959 2.62 6.28292 2.42C5.93626 2.20667 5.50959 2.1 5.00292 2.1C4.37626 2.08667 3.84959 2.24 3.42292 2.56C2.99626 2.86667 2.78292 3.28667 2.78292 3.82C2.78292 4.47334 3.04292 4.98667 3.56292 5.36C4.08292 5.72 4.92959 6.09334 6.10292 6.48C6.83626 6.72 7.48292 7.01334 8.04292 7.36C8.61626 7.69334 9.06292 8.12667 9.38292 8.66C9.71626 9.18 9.88292 9.84667 9.88292 10.66C9.88292 11.4067 9.69626 12.0867 9.32292 12.7C8.94959 13.3 8.40959 13.78 7.70292 14.14C7.00959 14.5 6.16959 14.68 5.18292 14.68ZM16.4551 14.44V0.440001H21.1951C22.2618 0.440001 23.1418 0.626668 23.8351 1C24.5284 1.36 25.0418 1.86 25.3751 2.5C25.7084 3.14 25.8751 3.87334 25.8751 4.7C25.8751 5.52667 25.7084 6.26 25.3751 6.9C25.0418 7.54 24.5284 8.04667 23.8351 8.42C23.1418 8.78 22.2618 8.96 21.1951 8.96H18.5751V14.44H16.4551ZM18.5751 7.06H21.0951C22.0018 7.06 22.6618 6.84667 23.0751 6.42C23.5018 5.99334 23.7151 5.42 23.7151 4.7C23.7151 3.99334 23.5018 3.42667 23.0751 3C22.6618 2.56 22.0018 2.34 21.0951 2.34H18.5751V7.06ZM37.0273 14.68C35.894 14.68 34.914 14.3867 34.0873 13.8C33.2606 13.2133 32.6273 12.38 32.1873 11.3C31.7473 10.22 31.5273 8.93334 31.5273 7.44C31.5273 5.94667 31.7473 4.66 32.1873 3.58C32.6273 2.5 33.2606 1.66667 34.0873 1.08C34.914 0.493335 35.894 0.200002 37.0273 0.200002C38.174 0.200002 39.154 0.493335 39.9673 1.08C40.794 1.66667 41.4273 2.5 41.8673 3.58C42.3073 4.66 42.5273 5.94667 42.5273 7.44C42.5273 8.93334 42.3073 10.22 41.8673 11.3C41.4273 12.38 40.794 13.2133 39.9673 13.8C39.154 14.3867 38.174 14.68 37.0273 14.68ZM37.0273 12.68C38.0273 12.68 38.834 12.2333 39.4473 11.34C40.0606 10.4333 40.3673 9.13334 40.3673 7.44C40.3673 5.74667 40.0606 4.45334 39.4473 3.56C38.834 2.65333 38.0273 2.2 37.0273 2.2C36.014 2.2 35.2006 2.65333 34.5873 3.56C33.9873 4.45334 33.6873 5.74667 33.6873 7.44C33.6873 9.13334 33.9873 10.4333 34.5873 11.34C35.2006 12.2333 36.014 12.68 37.0273 12.68ZM51.9595 14.44V2.34H48.1995V0.440001H57.8395V2.34H54.0795V14.44H51.9595ZM69.1517 14.68C68.165 14.68 67.2983 14.5 66.5517 14.14C65.8183 13.78 65.2383 13.2667 64.8117 12.6C64.3983 11.9333 64.185 11.14 64.1717 10.22H66.4117C66.425 10.9267 66.665 11.5333 67.1317 12.04C67.6117 12.5333 68.2783 12.78 69.1317 12.78C69.9183 12.78 70.5317 12.6 70.9717 12.24C71.4117 11.8667 71.6317 11.3867 71.6317 10.8C71.6317 10.3067 71.4983 9.9 71.2317 9.58C70.9783 9.24667 70.5783 8.95334 70.0317 8.7C69.485 8.43334 68.7783 8.16 67.9117 7.88C66.7517 7.50667 65.8983 6.99334 65.3517 6.34C64.805 5.67334 64.5317 4.86 64.5317 3.9C64.5317 2.79334 64.9317 1.9 65.7317 1.22C66.5317 0.540002 67.6317 0.200002 69.0317 0.200002C70.3917 0.200002 71.485 0.553335 72.3117 1.26C73.1383 1.95333 73.565 2.92 73.5917 4.16H71.3317C71.3317 3.82667 71.2383 3.50667 71.0517 3.2C70.865 2.88 70.5983 2.62 70.2517 2.42C69.905 2.20667 69.4783 2.1 68.9717 2.1C68.345 2.08667 67.8183 2.24 67.3917 2.56C66.965 2.86667 66.7517 3.28667 66.7517 3.82C66.7517 4.47334 67.0117 4.98667 67.5317 5.36C68.0517 5.72 68.8983 6.09334 70.0717 6.48C70.805 6.72 71.4517 7.01334 72.0117 7.36C72.585 7.69334 73.0317 8.12667 73.3517 8.66C73.685 9.18 73.8517 9.84667 73.8517 10.66C73.8517 11.4067 73.665 12.0867 73.2917 12.7C72.9183 13.3 72.3783 13.78 71.6717 14.14C70.9783 14.5 70.1383 14.68 69.1517 14.68Z"/>
</mask>
<path d="M5.18292 14.68C4.19626 14.68 3.32959 14.5 2.58292 14.14C1.84959 13.78 1.26959 13.2667 0.842923 12.6C0.42959 11.9333 0.216256 11.14 0.202923 10.22H2.44292C2.45626 10.9267 2.69626 11.5333 3.16292 12.04C3.64292 12.5333 4.30959 12.78 5.16292 12.78C5.94959 12.78 6.56292 12.6 7.00292 12.24C7.44292 11.8667 7.66292 11.3867 7.66292 10.8C7.66292 10.3067 7.52959 9.9 7.26292 9.58C7.00959 9.24667 6.60959 8.95334 6.06292 8.7C5.51626 8.43334 4.80959 8.16 3.94292 7.88C2.78292 7.50667 1.92959 6.99334 1.38292 6.34C0.836256 5.67334 0.562923 4.86 0.562923 3.9C0.562923 2.79334 0.962923 1.9 1.76292 1.22C2.56292 0.540002 3.66292 0.200002 5.06292 0.200002C6.42292 0.200002 7.51626 0.553335 8.34292 1.26C9.16959 1.95333 9.59626 2.92 9.62292 4.16H7.36292C7.36292 3.82667 7.26959 3.50667 7.08292 3.2C6.89626 2.88 6.62959 2.62 6.28292 2.42C5.93626 2.20667 5.50959 2.1 5.00292 2.1C4.37626 2.08667 3.84959 2.24 3.42292 2.56C2.99626 2.86667 2.78292 3.28667 2.78292 3.82C2.78292 4.47334 3.04292 4.98667 3.56292 5.36C4.08292 5.72 4.92959 6.09334 6.10292 6.48C6.83626 6.72 7.48292 7.01334 8.04292 7.36C8.61626 7.69334 9.06292 8.12667 9.38292 8.66C9.71626 9.18 9.88292 9.84667 9.88292 10.66C9.88292 11.4067 9.69626 12.0867 9.32292 12.7C8.94959 13.3 8.40959 13.78 7.70292 14.14C7.00959 14.5 6.16959 14.68 5.18292 14.68ZM16.4551 14.44V0.440001H21.1951C22.2618 0.440001 23.1418 0.626668 23.8351 1C24.5284 1.36 25.0418 1.86 25.3751 2.5C25.7084 3.14 25.8751 3.87334 25.8751 4.7C25.8751 5.52667 25.7084 6.26 25.3751 6.9C25.0418 7.54 24.5284 8.04667 23.8351 8.42C23.1418 8.78 22.2618 8.96 21.1951 8.96H18.5751V14.44H16.4551ZM18.5751 7.06H21.0951C22.0018 7.06 22.6618 6.84667 23.0751 6.42C23.5018 5.99334 23.7151 5.42 23.7151 4.7C23.7151 3.99334 23.5018 3.42667 23.0751 3C22.6618 2.56 22.0018 2.34 21.0951 2.34H18.5751V7.06ZM37.0273 14.68C35.894 14.68 34.914 14.3867 34.0873 13.8C33.2606 13.2133 32.6273 12.38 32.1873 11.3C31.7473 10.22 31.5273 8.93334 31.5273 7.44C31.5273 5.94667 31.7473 4.66 32.1873 3.58C32.6273 2.5 33.2606 1.66667 34.0873 1.08C34.914 0.493335 35.894 0.200002 37.0273 0.200002C38.174 0.200002 39.154 0.493335 39.9673 1.08C40.794 1.66667 41.4273 2.5 41.8673 3.58C42.3073 4.66 42.5273 5.94667 42.5273 7.44C42.5273 8.93334 42.3073 10.22 41.8673 11.3C41.4273 12.38 40.794 13.2133 39.9673 13.8C39.154 14.3867 38.174 14.68 37.0273 14.68ZM37.0273 12.68C38.0273 12.68 38.834 12.2333 39.4473 11.34C40.0606 10.4333 40.3673 9.13334 40.3673 7.44C40.3673 5.74667 40.0606 4.45334 39.4473 3.56C38.834 2.65333 38.0273 2.2 37.0273 2.2C36.014 2.2 35.2006 2.65333 34.5873 3.56C33.9873 4.45334 33.6873 5.74667 33.6873 7.44C33.6873 9.13334 33.9873 10.4333 34.5873 11.34C35.2006 12.2333 36.014 12.68 37.0273 12.68ZM51.9595 14.44V2.34H48.1995V0.440001H57.8395V2.34H54.0795V14.44H51.9595ZM69.1517 14.68C68.165 14.68 67.2983 14.5 66.5517 14.14C65.8183 13.78 65.2383 13.2667 64.8117 12.6C64.3983 11.9333 64.185 11.14 64.1717 10.22H66.4117C66.425 10.9267 66.665 11.5333 67.1317 12.04C67.6117 12.5333 68.2783 12.78 69.1317 12.78C69.9183 12.78 70.5317 12.6 70.9717 12.24C71.4117 11.8667 71.6317 11.3867 71.6317 10.8C71.6317 10.3067 71.4983 9.9 71.2317 9.58C70.9783 9.24667 70.5783 8.95334 70.0317 8.7C69.485 8.43334 68.7783 8.16 67.9117 7.88C66.7517 7.50667 65.8983 6.99334 65.3517 6.34C64.805 5.67334 64.5317 4.86 64.5317 3.9C64.5317 2.79334 64.9317 1.9 65.7317 1.22C66.5317 0.540002 67.6317 0.200002 69.0317 0.200002C70.3917 0.200002 71.485 0.553335 72.3117 1.26C73.1383 1.95333 73.565 2.92 73.5917 4.16H71.3317C71.3317 3.82667 71.2383 3.50667 71.0517 3.2C70.865 2.88 70.5983 2.62 70.2517 2.42C69.905 2.20667 69.4783 2.1 68.9717 2.1C68.345 2.08667 67.8183 2.24 67.3917 2.56C66.965 2.86667 66.7517 3.28667 66.7517 3.82C66.7517 4.47334 67.0117 4.98667 67.5317 5.36C68.0517 5.72 68.8983 6.09334 70.0717 6.48C70.805 6.72 71.4517 7.01334 72.0117 7.36C72.585 7.69334 73.0317 8.12667 73.3517 8.66C73.685 9.18 73.8517 9.84667 73.8517 10.66C73.8517 11.4067 73.665 12.0867 73.2917 12.7C72.9183 13.3 72.3783 13.78 71.6717 14.14C70.9783 14.5 70.1383 14.68 69.1517 14.68Z" fill="#212121"/>
<path d="M2.58292 14.14L2.49479 14.3195L2.49606 14.3202L2.58292 14.14ZM0.842923 12.6L0.672925 12.7054L0.674469 12.7078L0.842923 12.6ZM0.202923 10.22V10.02H3.45707e-06L0.00294399 10.2229L0.202923 10.22ZM2.44292 10.22L2.64289 10.2162L2.63918 10.02H2.44292V10.22ZM3.16292 12.04L3.01576 12.1755L3.01958 12.1795L3.16292 12.04ZM7.00292 12.24L7.12959 12.3948L7.13232 12.3925L7.00292 12.24ZM7.26292 9.58L7.10353 9.70114L7.10928 9.70804L7.26292 9.58ZM6.06292 8.7L5.97522 8.87979L5.97883 8.88146L6.06292 8.7ZM3.94292 7.88L4.00441 7.68969L4.0042 7.68962L3.94292 7.88ZM1.38292 6.34L1.22826 6.46682L1.22954 6.46835L1.38292 6.34ZM8.34292 1.26L8.21296 1.41203L8.2144 1.41324L8.34292 1.26ZM9.62292 4.16V4.36H9.82727L9.82288 4.1557L9.62292 4.16ZM7.36292 4.16H7.16292V4.36H7.36292V4.16ZM7.08292 3.2L6.91014 3.30079L6.91208 3.30399L7.08292 3.2ZM6.28292 2.42L6.17806 2.5904L6.18298 2.59324L6.28292 2.42ZM5.00292 2.1L4.99867 2.3H5.00292V2.1ZM3.42292 2.56L3.53967 2.72244L3.54292 2.72L3.42292 2.56ZM3.56292 5.36L3.44626 5.52249L3.44908 5.52444L3.56292 5.36ZM6.10292 6.48L6.04033 6.66995L6.04072 6.67008L6.10292 6.48ZM8.04292 7.36L7.93761 7.53012L7.9424 7.5329L8.04292 7.36ZM9.38292 8.66L9.21135 8.76295L9.21455 8.76794L9.38292 8.66ZM9.32292 12.7L9.49274 12.8057L9.49376 12.804L9.32292 12.7ZM7.70292 14.14L7.61214 13.9618L7.61076 13.9625L7.70292 14.14ZM5.18292 14.68V14.48C4.22067 14.48 3.38468 14.3045 2.66978 13.9598L2.58292 14.14L2.49606 14.3202C3.2745 14.6955 4.17184 14.88 5.18292 14.88V14.68ZM2.58292 14.14L2.67106 13.9605C1.96944 13.616 1.41768 13.127 1.01138 12.4922L0.842923 12.6L0.674469 12.7078C1.1215 13.4063 1.72974 13.944 2.49479 14.3195L2.58292 14.14ZM0.842923 12.6L1.0129 12.4946C0.621761 11.8637 0.415802 11.1072 0.402902 10.2171L0.202923 10.22L0.00294399 10.2229C0.0167108 11.1728 0.237418 12.0029 0.672943 12.7054L0.842923 12.6ZM0.202923 10.22V10.42H2.44292V10.22V10.02H0.202923V10.22ZM2.44292 10.22L2.24296 10.2238C2.25719 10.9779 2.51508 11.6318 3.01581 12.1755L3.16292 12.04L3.31003 11.9045C2.87743 11.4348 2.65532 10.8754 2.64289 10.2162L2.44292 10.22ZM3.16292 12.04L3.01958 12.1795C3.54586 12.7204 4.26937 12.98 5.16292 12.98V12.78V12.58C4.34981 12.58 3.73999 12.3463 3.30627 11.9005L3.16292 12.04ZM5.16292 12.78V12.98C5.97821 12.98 6.64228 12.7935 7.12957 12.3948L7.00292 12.24L6.87628 12.0852C6.48357 12.4065 5.92097 12.58 5.16292 12.58V12.78ZM7.00292 12.24L7.13232 12.3925C7.61796 11.9804 7.86292 11.4443 7.86292 10.8H7.66292H7.46292C7.46292 11.3291 7.26789 11.7529 6.87353 12.0875L7.00292 12.24ZM7.66292 10.8H7.86292C7.86292 10.2689 7.7185 9.81428 7.41657 9.45197L7.26292 9.58L7.10928 9.70804C7.34068 9.98572 7.46292 10.3444 7.46292 10.8H7.66292ZM7.26292 9.58L7.42216 9.45899C7.14232 9.09078 6.71114 8.77997 6.14702 8.51854L6.06292 8.7L5.97883 8.88146C6.50804 9.12671 6.87686 9.40256 7.10369 9.70102L7.26292 9.58ZM6.06292 8.7L6.15061 8.52025C5.59242 8.24796 4.8761 7.97131 4.00441 7.68969L3.94292 7.88L3.88144 8.07032C4.74308 8.34869 5.44009 8.61871 5.97524 8.87976L6.06292 8.7ZM3.94292 7.88L4.0042 7.68962C2.86544 7.32312 2.05044 6.82611 1.53631 6.21166L1.38292 6.34L1.22954 6.46835C1.80874 7.16056 2.70041 7.69022 3.88165 8.07038L3.94292 7.88ZM1.38292 6.34L1.53758 6.21319C1.02359 5.58637 0.762923 4.81934 0.762923 3.9H0.562923H0.362923C0.362923 4.90066 0.648926 5.7603 1.22827 6.46682L1.38292 6.34ZM0.562923 3.9H0.762923C0.762923 2.84839 1.13984 2.01211 1.89245 1.37239L1.76292 1.22L1.63339 1.06761C0.786001 1.7879 0.362923 2.73828 0.362923 3.9H0.562923ZM1.76292 1.22L1.89245 1.37239C2.64575 0.732088 3.69442 0.400002 5.06292 0.400002V0.200002V2.38419e-06C3.63143 2.38419e-06 2.4801 0.347917 1.63339 1.06761L1.76292 1.22ZM5.06292 0.200002V0.400002C6.38759 0.400002 7.4309 0.743484 8.21297 1.41203L8.34292 1.26L8.47288 1.10798C7.60161 0.363186 6.45825 2.38419e-06 5.06292 2.38419e-06V0.200002ZM8.34292 1.26L8.2144 1.41324C8.99008 2.06381 9.39734 2.97237 9.42297 4.1643L9.62292 4.16L9.82288 4.1557C9.79518 2.86763 9.3491 1.84286 8.47145 1.10676L8.34292 1.26ZM9.62292 4.16V3.96H7.36292V4.16V4.36H9.62292V4.16ZM7.36292 4.16H7.56292C7.56292 3.78716 7.45798 3.43151 7.25376 3.09601L7.08292 3.2L6.91208 3.30399C7.0812 3.58183 7.16292 3.86618 7.16292 4.16H7.36292ZM7.08292 3.2L7.25568 3.09923C7.05007 2.74675 6.7572 2.46273 6.38287 2.24677L6.28292 2.42L6.18298 2.59324C6.50198 2.77728 6.74245 3.01326 6.91017 3.30078L7.08292 3.2ZM6.28292 2.42L6.38774 2.24967C6.00267 2.0127 5.53759 1.9 5.00292 1.9V2.1V2.3C5.48159 2.3 5.86984 2.40063 6.1781 2.59033L6.28292 2.42ZM5.00292 2.1L5.00718 1.90005C4.34395 1.88594 3.7714 2.04865 3.30292 2.4L3.42292 2.56L3.54292 2.72C3.92778 2.43136 4.40857 2.2874 4.99867 2.29996L5.00292 2.1ZM3.42292 2.56L3.3062 2.3976C2.82632 2.74251 2.58292 3.22344 2.58292 3.82H2.78292H2.98292C2.98292 3.3499 3.16619 2.99083 3.53965 2.7224L3.42292 2.56ZM2.78292 3.82H2.58292C2.58292 4.53618 2.87268 5.11065 3.44628 5.52247L3.56292 5.36L3.67956 5.19754C3.21316 4.86268 2.98292 4.41049 2.98292 3.82H2.78292ZM3.56292 5.36L3.44908 5.52444C3.99351 5.90136 4.86263 6.28185 6.04033 6.66995L6.10292 6.48L6.16552 6.29005C4.99655 5.90482 4.17233 5.53865 3.67677 5.19556L3.56292 5.36ZM6.10292 6.48L6.04072 6.67008C6.76146 6.90596 7.39323 7.19303 7.93765 7.53006L8.04292 7.36L8.14819 7.18995C7.57261 6.83364 6.91106 6.53404 6.16513 6.28992L6.10292 6.48ZM8.04292 7.36L7.9424 7.5329C8.48854 7.85043 8.90995 8.26044 9.21142 8.7629L9.38292 8.66L9.55442 8.5571C9.2159 7.9929 8.74397 7.53624 8.14345 7.1871L8.04292 7.36ZM9.38292 8.66L9.21455 8.76794C9.52164 9.247 9.68292 9.87305 9.68292 10.66H9.88292H10.0829C10.0829 9.82029 9.91087 9.11301 9.5513 8.55207L9.38292 8.66ZM9.88292 10.66H9.68292C9.68292 11.3715 9.50556 12.0153 9.15208 12.596L9.32292 12.7L9.49376 12.804C9.88695 12.158 10.0829 11.4418 10.0829 10.66H9.88292ZM9.32292 12.7L9.15311 12.5943C8.8013 13.1598 8.29042 13.6163 7.61214 13.9618L7.70292 14.14L7.79371 14.3182C8.52876 13.9437 9.09788 13.4403 9.49273 12.8057L9.32292 12.7ZM7.70292 14.14L7.61076 13.9625C6.95241 14.3043 6.14575 14.48 5.18292 14.48V14.68V14.88C6.19343 14.88 7.06677 14.6957 7.79509 14.3175L7.70292 14.14ZM16.4551 14.44H16.2551V14.64H16.4551V14.44ZM16.4551 0.440001V0.240002H16.2551V0.440001H16.4551ZM23.8351 1L23.7403 1.17612L23.7429 1.1775L23.8351 1ZM25.3751 2.5L25.1977 2.59239V2.59239L25.3751 2.5ZM25.3751 6.9L25.1977 6.80762V6.80762L25.3751 6.9ZM23.8351 8.42L23.9273 8.59752L23.9299 8.5961L23.8351 8.42ZM18.5751 8.96V8.76H18.3751V8.96H18.5751ZM18.5751 14.44V14.64H18.7751V14.44H18.5751ZM18.5751 7.06H18.3751V7.26H18.5751V7.06ZM23.0751 6.42L22.9337 6.27856L22.9315 6.28084L23.0751 6.42ZM23.0751 3L22.9293 3.137L22.9337 3.14142L23.0751 3ZM18.5751 2.34V2.14H18.3751V2.34H18.5751ZM16.4551 14.44H16.6551V0.440001H16.4551H16.2551V14.44H16.4551ZM16.4551 0.440001V0.640001H21.1951V0.440001V0.240002H16.4551V0.440001ZM21.1951 0.440001V0.640001C22.2399 0.640001 23.0846 0.823028 23.7403 1.1761L23.8351 1L23.9299 0.823907C23.199 0.430308 22.2837 0.240002 21.1951 0.240002V0.440001ZM23.8351 1L23.7429 1.1775C24.403 1.52021 24.885 1.99189 25.1977 2.59239L25.3751 2.5L25.5525 2.40762C25.1986 1.72812 24.6539 1.1998 23.9273 0.822502L23.8351 1ZM25.3751 2.5L25.1977 2.59239C25.5142 3.19995 25.6751 3.90079 25.6751 4.7H25.8751H26.0751C26.0751 3.84588 25.9027 3.08005 25.5525 2.40762L25.3751 2.5ZM25.8751 4.7H25.6751C25.6751 5.49922 25.5142 6.20005 25.1977 6.80762L25.3751 6.9L25.5525 6.99239C25.9027 6.31995 26.0751 5.55412 26.0751 4.7H25.8751ZM25.3751 6.9L25.1977 6.80762C24.8846 7.40882 24.4017 7.88776 23.7403 8.24391L23.8351 8.42L23.9299 8.5961C24.6552 8.20558 25.199 7.67118 25.5525 6.99239L25.3751 6.9ZM23.8351 8.42L23.7429 8.2425C23.0866 8.58332 22.2408 8.76 21.1951 8.76V8.96V9.16C22.2827 9.16 23.197 8.97668 23.9273 8.5975L23.8351 8.42ZM21.1951 8.96V8.76H18.5751V8.96V9.16H21.1951V8.96ZM18.5751 8.96H18.3751V14.44H18.5751H18.7751V8.96H18.5751ZM18.5751 14.44V14.24H16.4551V14.44V14.64H18.5751V14.44ZM18.5751 7.06V7.26H21.0951V7.06V6.86H18.5751V7.06ZM21.0951 7.06V7.26C22.0278 7.26 22.7519 7.0411 23.2188 6.55916L23.0751 6.42L22.9315 6.28084C22.5717 6.65224 21.9757 6.86 21.0951 6.86V7.06ZM23.0751 6.42L23.2165 6.56142C23.6878 6.09013 23.9151 5.46205 23.9151 4.7H23.7151H23.5151C23.5151 5.37795 23.3157 5.89654 22.9337 6.27858L23.0751 6.42ZM23.7151 4.7H23.9151C23.9151 3.95008 23.6871 3.32915 23.2165 2.85858L23.0751 3L22.9337 3.14142C23.3165 3.52418 23.5151 4.03659 23.5151 4.7H23.7151ZM23.0751 3L23.2209 2.86307C22.7543 2.36635 22.0294 2.14 21.0951 2.14V2.34V2.54C21.9742 2.54 22.5693 2.75365 22.9293 3.13694L23.0751 3ZM21.0951 2.34V2.14H18.5751V2.34V2.54H21.0951V2.34ZM18.5751 2.34H18.3751V7.06H18.5751H18.7751V2.34H18.5751ZM34.0873 13.8L34.203 13.6369V13.6369L34.0873 13.8ZM32.1873 11.3L32.0021 11.3755V11.3755L32.1873 11.3ZM32.1873 3.58L32.0021 3.50454V3.50454L32.1873 3.58ZM34.0873 1.08L33.9715 0.9169V0.9169L34.0873 1.08ZM39.9673 1.08L39.8503 1.24221L39.8515 1.2431L39.9673 1.08ZM41.8673 3.58L42.0525 3.50454V3.50454L41.8673 3.58ZM41.8673 11.3L42.0525 11.3755V11.3755L41.8673 11.3ZM39.9673 13.8L39.8515 13.6369L39.8503 13.6378L39.9673 13.8ZM39.4473 11.34L39.6122 11.4532L39.613 11.4521L39.4473 11.34ZM39.4473 3.56L39.2816 3.67207L39.2824 3.6732L39.4473 3.56ZM34.5873 3.56L34.4216 3.44794L34.4213 3.44849L34.5873 3.56ZM34.5873 11.34L34.4205 11.4504L34.4224 11.4532L34.5873 11.34ZM37.0273 14.68V14.48C35.9303 14.48 34.992 14.1968 34.203 13.6369L34.0873 13.8L33.9715 13.9631C34.836 14.5766 35.8576 14.88 37.0273 14.88V14.68ZM34.0873 13.8L34.203 13.6369C33.4119 13.0754 32.8004 12.2747 32.3725 11.2245L32.1873 11.3L32.0021 11.3755C32.4542 12.4853 33.1094 13.3513 33.9715 13.9631L34.0873 13.8ZM32.1873 11.3L32.3725 11.2245C31.9446 10.1742 31.7273 8.91441 31.7273 7.44H31.5273H31.3273C31.3273 8.95226 31.55 10.2658 32.0021 11.3755L32.1873 11.3ZM31.5273 7.44H31.7273C31.7273 5.96559 31.9446 4.70581 32.3725 3.65546L32.1873 3.58L32.0021 3.50454C31.55 4.61419 31.3273 5.92774 31.3273 7.44H31.5273ZM32.1873 3.58L32.3725 3.65546C32.8004 2.60526 33.4119 1.8046 34.203 1.2431L34.0873 1.08L33.9715 0.9169C33.1094 1.52874 32.4542 2.39474 32.0021 3.50454L32.1873 3.58ZM34.0873 1.08L34.203 1.2431C34.9919 0.683238 35.9303 0.400002 37.0273 0.400002V0.200002V2.38419e-06C35.8576 2.38419e-06 34.836 0.303433 33.9715 0.9169L34.0873 1.08ZM37.0273 0.200002V0.400002C38.1382 0.400002 39.0758 0.683536 39.8503 1.24221L39.9673 1.08L40.0843 0.917796C39.2322 0.303134 38.2097 2.38419e-06 37.0273 2.38419e-06V0.200002ZM39.9673 1.08L39.8515 1.2431C40.6427 1.8046 41.2542 2.60526 41.6821 3.65546L41.8673 3.58L42.0525 3.50454C41.6004 2.39474 40.9452 1.52874 40.083 0.9169L39.9673 1.08ZM41.8673 3.58L41.6821 3.65546C42.11 4.70581 42.3273 5.96559 42.3273 7.44H42.5273H42.7273C42.7273 5.92774 42.5046 4.61419 42.0525 3.50454L41.8673 3.58ZM42.5273 7.44H42.3273C42.3273 8.91441 42.11 10.1742 41.6821 11.2245L41.8673 11.3L42.0525 11.3755C42.5046 10.2658 42.7273 8.95226 42.7273 7.44H42.5273ZM41.8673 11.3L41.6821 11.2245C41.2542 12.2747 40.6427 13.0754 39.8515 13.6369L39.9673 13.8L40.083 13.9631C40.9452 13.3513 41.6004 12.4853 42.0525 11.3755L41.8673 11.3ZM39.9673 13.8L39.8503 13.6378C39.0758 14.1965 38.1382 14.48 37.0273 14.48V14.68V14.88C38.2097 14.88 39.2322 14.5769 40.0843 13.9622L39.9673 13.8ZM37.0273 12.68V12.88C38.0994 12.88 38.9652 12.3955 39.6122 11.4532L39.4473 11.34L39.2824 11.2268C38.7027 12.0712 37.9552 12.48 37.0273 12.48V12.68ZM39.4473 11.34L39.613 11.4521C40.2578 10.4988 40.5673 9.153 40.5673 7.44H40.3673H40.1673C40.1673 9.11367 39.8634 10.3679 39.2816 11.2279L39.4473 11.34ZM40.3673 7.44H40.5673C40.5673 5.72731 40.2579 4.38738 39.6122 3.4468L39.4473 3.56L39.2824 3.6732C39.8633 4.51929 40.1673 5.76603 40.1673 7.44H40.3673ZM39.4473 3.56L39.613 3.44794C38.9666 2.49241 38.1008 2 37.0273 2V2.2V2.4C37.9538 2.4 38.7014 2.81426 39.2816 3.67206L39.4473 3.56ZM37.0273 2.2V2C35.9415 2 35.0686 2.4915 34.4216 3.44794L34.5873 3.56L34.753 3.67206C35.3326 2.81517 36.0864 2.4 37.0273 2.4V2.2ZM34.5873 3.56L34.4213 3.44849C33.7898 4.38873 33.4873 5.72793 33.4873 7.44H33.6873H33.8873C33.8873 5.7654 34.1848 4.51794 34.7533 3.67151L34.5873 3.56ZM33.6873 7.44H33.4873C33.4873 9.15238 33.7899 10.4974 34.4205 11.4504L34.5873 11.34L34.7541 11.2296C34.1847 10.3692 33.8873 9.1143 33.8873 7.44H33.6873ZM34.5873 11.34L34.4224 11.4532C35.07 12.3964 35.9428 12.88 37.0273 12.88V12.68V12.48C36.0851 12.48 35.3313 12.0703 34.7522 11.2268L34.5873 11.34ZM51.9595 14.44H51.7595V14.64H51.9595V14.44ZM51.9595 2.34H52.1595V2.14H51.9595V2.34ZM48.1995 2.34H47.9995V2.54H48.1995V2.34ZM48.1995 0.440001V0.240002H47.9995V0.440001H48.1995ZM57.8395 0.440001H58.0395V0.240002H57.8395V0.440001ZM57.8395 2.34V2.54H58.0395V2.34H57.8395ZM54.0795 2.34V2.14H53.8795V2.34H54.0795ZM54.0795 14.44V14.64H54.2795V14.44H54.0795ZM51.9595 14.44H52.1595V2.34H51.9595H51.7595V14.44H51.9595ZM51.9595 2.34V2.14H48.1995V2.34V2.54H51.9595V2.34ZM48.1995 2.34H48.3995V0.440001H48.1995H47.9995V2.34H48.1995ZM48.1995 0.440001V0.640001H57.8395V0.440001V0.240002H48.1995V0.440001ZM57.8395 0.440001H57.6395V2.34H57.8395H58.0395V0.440001H57.8395ZM57.8395 2.34V2.14H54.0795V2.34V2.54H57.8395V2.34ZM54.0795 2.34H53.8795V14.44H54.0795H54.2795V2.34H54.0795ZM54.0795 14.44V14.24H51.9595V14.44V14.64H54.0795V14.44ZM66.5517 14.14L66.4635 14.3195L66.4648 14.3202L66.5517 14.14ZM64.8117 12.6L64.6417 12.7054L64.6432 12.7078L64.8117 12.6ZM64.1717 10.22V10.02H63.9688L63.9717 10.2229L64.1717 10.22ZM66.4117 10.22L66.6116 10.2162L66.6079 10.02H66.4117V10.22ZM67.1317 12.04L66.9845 12.1755L66.9883 12.1795L67.1317 12.04ZM70.9717 12.24L71.0983 12.3948L71.1011 12.3925L70.9717 12.24ZM71.2317 9.58L71.0723 9.70114L71.078 9.70804L71.2317 9.58ZM70.0317 8.7L69.944 8.87979L69.9476 8.88146L70.0317 8.7ZM67.9117 7.88L67.9732 7.68969L67.9729 7.68962L67.9117 7.88ZM65.3517 6.34L65.197 6.46682L65.1983 6.46835L65.3517 6.34ZM72.3117 1.26L72.1817 1.41203L72.1832 1.41324L72.3117 1.26ZM73.5917 4.16V4.36H73.796L73.7916 4.1557L73.5917 4.16ZM71.3317 4.16H71.1317V4.36H71.3317V4.16ZM71.0517 3.2L70.8789 3.30079L70.8808 3.30399L71.0517 3.2ZM70.2517 2.42L70.1468 2.5904L70.1517 2.59324L70.2517 2.42ZM68.9717 2.1L68.9674 2.3H68.9717V2.1ZM67.3917 2.56L67.5084 2.72244L67.5117 2.72L67.3917 2.56ZM67.5317 5.36L67.415 5.52249L67.4178 5.52444L67.5317 5.36ZM70.0717 6.48L70.0091 6.66995L70.0095 6.67008L70.0717 6.48ZM72.0117 7.36L71.9064 7.53012L71.9111 7.5329L72.0117 7.36ZM73.3517 8.66L73.1801 8.76295L73.1833 8.76794L73.3517 8.66ZM73.2917 12.7L73.4615 12.8057L73.4625 12.804L73.2917 12.7ZM71.6717 14.14L71.5809 13.9618L71.5795 13.9625L71.6717 14.14ZM69.1517 14.68V14.48C68.1894 14.48 67.3534 14.3045 66.6385 13.9598L66.5517 14.14L66.4648 14.3202C67.2432 14.6955 68.1406 14.88 69.1517 14.88V14.68ZM66.5517 14.14L66.6398 13.9605C65.9382 13.616 65.3864 13.127 64.9801 12.4922L64.8117 12.6L64.6432 12.7078C65.0903 13.4063 65.6985 13.944 66.4635 14.3195L66.5517 14.14ZM64.8117 12.6L64.9817 12.4946C64.5905 11.8637 64.3846 11.1072 64.3717 10.2171L64.1717 10.22L63.9717 10.2229C63.9855 11.1728 64.2062 12.0029 64.6417 12.7054L64.8117 12.6ZM64.1717 10.22V10.42H66.4117V10.22V10.02H64.1717V10.22ZM66.4117 10.22L66.2117 10.2238C66.2259 10.9779 66.4838 11.6318 66.9846 12.1755L67.1317 12.04L67.2788 11.9045C66.8462 11.4348 66.6241 10.8754 66.6116 10.2162L66.4117 10.22ZM67.1317 12.04L66.9883 12.1795C67.5146 12.7204 68.2381 12.98 69.1317 12.98V12.78V12.58C68.3186 12.58 67.7087 12.3463 67.275 11.9005L67.1317 12.04ZM69.1317 12.78V12.98C69.947 12.98 70.611 12.7935 71.0983 12.3948L70.9717 12.24L70.845 12.0852C70.4523 12.4065 69.8897 12.58 69.1317 12.58V12.78ZM70.9717 12.24L71.1011 12.3925C71.5867 11.9804 71.8317 11.4443 71.8317 10.8H71.6317H71.4317C71.4317 11.3291 71.2366 11.7529 70.8423 12.0875L70.9717 12.24ZM71.6317 10.8H71.8317C71.8317 10.2689 71.6872 9.81428 71.3853 9.45197L71.2317 9.58L71.078 9.70804C71.3094 9.98572 71.4317 10.3444 71.4317 10.8H71.6317ZM71.2317 9.58L71.3909 9.45899C71.1111 9.09078 70.6799 8.77997 70.1158 8.51854L70.0317 8.7L69.9476 8.88146C70.4768 9.12671 70.8456 9.40256 71.0724 9.70102L71.2317 9.58ZM70.0317 8.7L70.1194 8.52025C69.5612 8.24796 68.8449 7.97131 67.9732 7.68969L67.9117 7.88L67.8502 8.07032C68.7118 8.34869 69.4088 8.61871 69.944 8.87976L70.0317 8.7ZM67.9117 7.88L67.9729 7.68962C66.8342 7.32312 66.0192 6.82611 65.5051 6.21166L65.3517 6.34L65.1983 6.46835C65.7775 7.16056 66.6692 7.69022 67.8504 8.07038L67.9117 7.88ZM65.3517 6.34L65.5063 6.21319C64.9923 5.58637 64.7317 4.81934 64.7317 3.9H64.5317H64.3317C64.3317 4.90066 64.6177 5.7603 65.197 6.46682L65.3517 6.34ZM64.5317 3.9H64.7317C64.7317 2.84839 65.1086 2.01211 65.8612 1.37239L65.7317 1.22L65.6021 1.06761C64.7548 1.7879 64.3317 2.73828 64.3317 3.9H64.5317ZM65.7317 1.22L65.8612 1.37239C66.6145 0.732088 67.6632 0.400002 69.0317 0.400002V0.200002V2.38419e-06C67.6002 2.38419e-06 66.4488 0.347917 65.6021 1.06761L65.7317 1.22ZM69.0317 0.200002V0.400002C70.3563 0.400002 71.3997 0.743484 72.1817 1.41203L72.3117 1.26L72.4416 1.10798C71.5704 0.363186 70.427 2.38419e-06 69.0317 2.38419e-06V0.200002ZM72.3117 1.26L72.1832 1.41324C72.9588 2.06381 73.3661 2.97237 73.3917 4.1643L73.5917 4.16L73.7916 4.1557C73.7639 2.86763 73.3178 1.84286 72.4402 1.10676L72.3117 1.26ZM73.5917 4.16V3.96H71.3317V4.16V4.36H73.5917V4.16ZM71.3317 4.16H71.5317C71.5317 3.78716 71.4267 3.43151 71.2225 3.09601L71.0517 3.2L70.8808 3.30399C71.0499 3.58183 71.1317 3.86618 71.1317 4.16H71.3317ZM71.0517 3.2L71.2244 3.09923C71.0188 2.74675 70.726 2.46273 70.3516 2.24677L70.2517 2.42L70.1517 2.59324C70.4707 2.77728 70.7112 3.01326 70.8789 3.30078L71.0517 3.2ZM70.2517 2.42L70.3565 2.24967C69.9714 2.0127 69.5063 1.9 68.9717 1.9V2.1V2.3C69.4503 2.3 69.8386 2.40063 70.1469 2.59033L70.2517 2.42ZM68.9717 2.1L68.9759 1.90005C68.3127 1.88594 67.7401 2.04865 67.2717 2.4L67.3917 2.56L67.5117 2.72C67.8965 2.43136 68.3773 2.2874 68.9674 2.29996L68.9717 2.1ZM67.3917 2.56L67.2749 2.3976C66.7951 2.74251 66.5517 3.22344 66.5517 3.82H66.7517H66.9517C66.9517 3.3499 67.1349 2.99083 67.5084 2.7224L67.3917 2.56ZM66.7517 3.82H66.5517C66.5517 4.53618 66.8414 5.11065 67.415 5.52247L67.5317 5.36L67.6483 5.19754C67.1819 4.86268 66.9517 4.41049 66.9517 3.82H66.7517ZM67.5317 5.36L67.4178 5.52444C67.9623 5.90136 68.8314 6.28185 70.0091 6.66995L70.0717 6.48L70.1343 6.29005C68.9653 5.90482 68.1411 5.53865 67.6455 5.19556L67.5317 5.36ZM70.0717 6.48L70.0095 6.67008C70.7302 6.90596 71.362 7.19303 71.9064 7.53006L72.0117 7.36L72.1169 7.18995C71.5414 6.83364 70.8798 6.53404 70.1339 6.28992L70.0717 6.48ZM72.0117 7.36L71.9111 7.5329C72.4573 7.85043 72.8787 8.26044 73.1802 8.7629L73.3517 8.66L73.5232 8.5571C73.1847 7.9929 72.7127 7.53624 72.1122 7.1871L72.0117 7.36ZM73.3517 8.66L73.1833 8.76794C73.4904 9.247 73.6517 9.87305 73.6517 10.66H73.8517H74.0517C74.0517 9.82029 73.8796 9.11301 73.5201 8.55207L73.3517 8.66ZM73.8517 10.66H73.6517C73.6517 11.3715 73.4743 12.0153 73.1208 12.596L73.2917 12.7L73.4625 12.804C73.8557 12.158 74.0517 11.4418 74.0517 10.66H73.8517ZM73.2917 12.7L73.1219 12.5943C72.7701 13.1598 72.2592 13.6163 71.5809 13.9618L71.6717 14.14L71.7625 14.3182C72.4975 13.9437 73.0666 13.4403 73.4615 12.8057L73.2917 12.7ZM71.6717 14.14L71.5795 13.9625C70.9212 14.3043 70.1145 14.48 69.1517 14.48V14.68V14.88C70.1622 14.88 71.0355 14.6957 71.7638 14.3175L71.6717 14.14Z" fill="#212121" mask="url(#path-1-outside-1_101448_151)"/>
</svg>
